<?xml version="1.0" encoding="UTF-8"?>
<svg width="256" height="256" viewBox="0 0 256 256" xmlns="http://www.w3.org/2000/svg" fill="none">
    <defs>
        <linearGradient id="g" x1="0" y1="0" x2="1" y2="1">
            <stop offset="0%" stop-color="#6EE7F9"/>
            <stop offset="100%" stop-color="#A78BFA"/>
        </linearGradient>
    </defs>
    <!-- basit köpek kafası silüeti -->
    <path d="M60 150c0-40 30-72 68-72s68 32 68 72v8c0 22-18 40-40 40H100c-22 0-40-18-40-40v-8z" fill="url(#g)"/>
    <circle cx="108" cy="132" r="8" fill="#0B1020"/>
    <circle cx="148" cy="132" r="8" fill="#0B1020"/>
    <path d="M128 158c10 0 18 4 18 9 0 6-8 11-18 11s-18-5-18-11c0-5 8-9 18-9z" fill="#0B1020" opacity="0.9"/>
    <!-- kulaklar -->
    <path d="M84 74c-18 6-26 24-20 40 16-10 36-18 52-20-6-10-16-20-32-20z" fill="#8B5CF6" opacity="0.85"/>
    <path d="M172 74c18 6 26 24 20 40-16-10-36-18-52-20 6-10 16-20 32-20z" fill="#8B5CF6" opacity="0.85"/>
    <!-- burun -->
    <circle cx="128" cy="150" r="6" fill="#0B1020"/>
</svg>
